<?xml version="1.0" encoding="UTF-8"?>
<svg id="Layer_1" data-name="Layer 1" xmlns="http://www.w3.org/2000/svg" viewBox="0 0 1658.03 395.57">
  <defs>
    <style>
      .cls-1 {
        fill: #0b0b0b;
        stroke-width: 0px;
      }
    </style>
  </defs>
  <path class="cls-1" d="m49.41,238.5c0-15.32,12.53-27.73,27.97-27.73h145.5v-44.3H74.29c-13.72,0-24.88-11.05-24.88-24.71V44.31h204.23V.01H0v390.35h253.64v-44.3H49.41v-107.55h0Z"/>
  <path class="cls-1" d="m588,349.67c-12.95,0-21.2-2.02-26.37-6.41-4.93-4.22-8.31-11.94-8.31-26.96v-153.16c0-9.74,8.02-17.64,17.76-17.64h49.05v-42.17h-66.81V23.75h-46.74v61.82c0,9.74-8.02,17.64-17.76,17.64h-28.33v40.03c-19.36-26.96-54.7-45.19-97.34-45.19-56.71,0-102.68,33.67-102.68,85.58,0,14.55,3.03,26.43,8.67,36.23,5.64,9.8,13.66,17.04,22.98,22.69,17.1,10.33,39.43,15.56,61.17,20.67,1.54.36,3.15.71,4.69,1.07,1.6.36,3.15.71,4.69,1.07,21.44,4.81,37.83,8.49,49.23,14.49,5.88,3.15,10.1,6.65,12.83,10.99,2.73,4.28,4.34,9.86,4.34,17.52,0,14.97-6.95,26.19-18.05,33.91-11.28,7.84-27.08,12.11-44.24,12.11-36.64,0-70.61-19.84-82.85-53.92l-3.27-9.09-6.47,6.47-32.25,21.32,1.84,4.57c19.84,49.53,72.63,71.8,122.93,71.8,58.73,0,108.5-34.68,108.5-89.32,0-15.26-3.38-27.73-9.5-38.01-6.12-10.21-14.79-17.82-24.82-23.7-18.05-10.63-41.39-16.09-63.6-21.32-2.02-.47-4.04-.95-6-1.42-21.02-4.81-37.41-8.61-48.7-14.61-5.52-2.97-9.38-6.24-12-10.1-2.55-3.8-4.04-8.61-4.04-15.14,0-13.24,5.28-23.52,14.43-30.7,9.32-7.3,23.1-11.64,40.44-11.64,36.23,0,59.98,17.99,71.26,45.73l2.79,6.95,37.35-24.71-1.72-4.51c-2.38-6.18-5.52-12.11-9.32-17.7h44.78v176.08c0,25.71,6.59,44.07,20.19,55.76,13.36,11.58,32.31,15.56,54.34,15.56,16.33,0,28.51-1.6,41.81-4.93l4.63-1.13v-43.17l-7.66,1.96c-11.7,3.03-20.73,4.04-31.89,4.04v.18h.02Z"/>
  <path class="cls-1" d="m869.02,350.21c-.36.06-.71.12-1.01.18-.65.12-1.31.3-1.96.36-.36,0-.77.12-1.13.12-.53.06-1.13.18-1.66.18h-2.55c-.54,0-1.01,0-1.43-.06-.36,0-.71,0-1.01-.06-.47,0-.89-.12-1.37-.24-.3,0-.59-.12-.89-.18-.47-.12-.89-.24-1.37-.36-.18-.06-.42-.12-.65-.18-.59-.24-1.19-.47-1.72-.77-3.68-1.96-6.65-6-6.65-14.13v-146.39c0-29.04-9.5-52.02-27.5-67.7-17.88-15.56-43.23-23.16-73.58-23.16-55.47,0-98.41,31-112.48,78.04l-1.72,5.82,45.37,13.6,1.6-6.12c4.22-15.98,12-27.85,22.86-35.81,10.87-7.96,25.24-12.29,43.41-12.29,19.24,0,32.78,4.63,41.45,12.59,8.61,7.9,13.42,19.84,13.42,36.64,0,6.89-4.93,12.89-11.7,14.19l-43.29,8.73c-34.68,6.89-64.55,16.27-85.81,31.48-20.13,14.43-32.43,33.97-34.03,60.52h-.24v6.12c0,27.08,10.99,48.28,28.69,62.65,17.58,14.25,41.27,21.38,66.57,21.38,35.16,0,65.74-14.13,84.63-33.49,3.56,10.45,10.33,18.41,20.19,23.52,1.48.77,2.97,1.42,4.57,2.08.42.18.77.3,1.19.47,1.54.59,3.15,1.13,4.87,1.6h.06c1.72.48,3.44.83,5.28,1.19.48.06.89.18,1.37.24,1.78.3,3.62.53,5.46.71h.18c1.9.18,3.92.3,5.94.36h3.15c1.48,0,2.97,0,4.51-.12h.18c2.14-.06,4.34-.24,6.53-.48.53,0,1.07-.12,1.66-.18,2.26-.24,4.45-.47,6.77-.83l5.23-.77v-42.88l-7.9,2.32c-1.07.36-2.14.59-3.21.83v.12l-.3.18.02-.02Zm-70.73-57.07c0,32.01-31.77,61.35-76.08,61.35-16.39,0-29.16-4.57-37.71-12-8.49-7.36-13.42-17.99-13.42-31.42,0-9.38,1.96-16.87,5.46-22.98,3.5-6.12,8.73-11.28,15.86-15.8,14.43-9.15,35.81-15.03,63.43-20.55l42.46-8.97v50.42-.06h0Z"/>
  <path class="cls-1" d="m982.21,349.67c-12.95,0-21.2-2.02-26.37-6.41-4.93-4.22-8.31-11.94-8.31-26.96v-153.16c0-9.74,8.02-17.64,17.76-17.64h49.05v-42.17h-66.81V23.75h-46.74v61.82c0,9.74-8.02,17.64-17.76,17.64h-28.33v42.16h46.2v176.08c0,25.72,6.59,44.07,20.19,55.77,13.36,11.58,32.31,15.56,54.34,15.56,16.33,0,28.51-1.6,41.81-4.93l4.63-1.13v-43.17l-7.66,1.96c-11.7,3.03-20.73,4.04-31.89,4.04l-.12.12h.01Z"/>
  <path class="cls-1" d="m1088.09,103.22h-47.27v287.08h47.27V103.22h0Z"/>
  <path class="cls-1" d="m1091.24,0h-53.15v59.03h53.15V0h0Z"/>
  <path class="cls-1" d="m1310.03,103.22l-81.12,219.56-81.12-219.56h-50.36l110.23,287.08h41.86l110.23-287.08h-49.76.07-.03Z"/>
  <path class="cls-1" d="m1471.8,97.99c-38.67,0-71.26,15.68-94.13,42.28-22.8,26.55-35.64,63.72-35.64,106.48s12.83,80.77,35.88,107.19c23.1,26.49,56.12,41.63,95.49,41.63,57.91,0,100.07-32.31,115.69-84.39l1.73-5.76-43.89-13.84-1.49,6.41c-7.84,33.49-34.02,54.76-72.04,54.76s-66.92-22.69-79.28-61.7c-5.58-17.58,8.01-35.69,26.84-35.69h170.5v-17.7c0-39.2-10.22-74.06-30.47-99.3-20.37-25.42-50.59-40.5-89.19-40.5v.12h0Zm-81.36,117.88c4.51-22.75,14.07-40.92,27.02-53.57,14.19-13.9,32.85-21.62,54.28-21.62,25.25,0,42.7,9.74,54.04,24.35,10.46,13.42,16.16,31.42,17.51,50.9h-152.92l.07-.06Z"/>
  <path class="cls-1" d="m1644.67,26.61l-12.88,35.04-13.37-35.04h-13.54v47.75h9.86v-32.01l12.53,32.01h8.37l12.53-32.01v32.01h9.86V26.61h-13.37.01Z"/>
  <path class="cls-1" d="m1563.97,35.45h13.9v38.96h10.27v-38.96h13.95v-8.79h-38.12v8.79Z"/>
</svg>